<?xml version="1.0" encoding="UTF-8"?>
<svg id="Layer_2" data-name="Layer 2" xmlns="http://www.w3.org/2000/svg" viewBox="0 0 448.62 441.14">
  <defs>
    <style>
      .cls-1 {
        fill: #010101;
        fill-rule: evenodd;
      }
    </style>
  </defs>
  <g id="Layer_1-2" data-name="Layer 1">
    <g>
      <path id="Path_215" data-name="Path 215" class="cls-1" d="M199.43,0C89.25.03-.03,89.38,0,199.55c.03,110.18,89.38,199.46,199.55,199.43,110.15-.03,199.43-89.34,199.43-199.49C398.93,89.31,309.6.02,199.43,0ZM199.43,31.56c92.75,0,167.93,75.19,167.93,167.93s-75.19,167.93-167.93,167.93S31.49,292.24,31.49,199.49c.04-92.73,75.2-167.89,167.93-167.93Z"/>
      <path id="Path_216" data-name="Path 216" class="cls-1" d="M443.81,414.06l-99.03-99.03c-6.05-6.27-16.04-6.44-22.31-.39-6.27,6.05-6.44,16.04-.39,22.31.13.13.26.26.39.39l99.03,98.98c6.05,6.27,16.04,6.44,22.31.39,6.27-6.05,6.44-16.04.39-22.31-.13-.13-.26-.26-.39-.39v.05Z"/>
    </g>
  </g>
</svg>